<svg xmlns="http://www.w3.org/2000/svg" viewBox="0 0 400 300" width="400" height="300" role="img">
  <defs>
    <linearGradient id="sky" x1="0" y1="0" x2="0" y2="1">
      <stop offset="0" stop-color="#FFEDD5"/>
      <stop offset="1" stop-color="#FDBA74"/>
    </linearGradient>
  </defs>
  <rect width="400" height="300" fill="url(#sky)"/>
  <line x1="360.0" y1="60.0" x2="368.0" y2="60.0" stroke="#F59E0B" stroke-width="2.5" stroke-linecap="round"/><line x1="351.2" y1="81.2" x2="356.9" y2="86.9" stroke="#F59E0B" stroke-width="2.5" stroke-linecap="round"/><line x1="330.0" y1="90.0" x2="330.0" y2="98.0" stroke="#F59E0B" stroke-width="2.5" stroke-linecap="round"/><line x1="308.8" y1="81.2" x2="303.1" y2="86.9" stroke="#F59E0B" stroke-width="2.5" stroke-linecap="round"/><line x1="300.0" y1="60.0" x2="292.0" y2="60.0" stroke="#F59E0B" stroke-width="2.5" stroke-linecap="round"/><line x1="308.8" y1="38.8" x2="303.1" y2="33.1" stroke="#F59E0B" stroke-width="2.5" stroke-linecap="round"/><line x1="330.0" y1="30.0" x2="330.0" y2="22.0" stroke="#F59E0B" stroke-width="2.5" stroke-linecap="round"/><line x1="351.2" y1="38.8" x2="356.9" y2="33.1" stroke="#F59E0B" stroke-width="2.5" stroke-linecap="round"/><circle cx="330" cy="60" r="26" fill="#F59E0B"/>
  <rect y="240" width="400" height="60" fill="#FB923C"/>
  
    <polygon points="80,150 200,95 320,150" fill="#7F1D1D"/>
    <rect x="100" y="150" width="200" height="90" fill="#F8FAFC"/>
    <rect x="180" y="190" width="40" height="50" fill="#7F1D1D"/>
    <rect x="125" y="170" width="30" height="28" fill="#BAE6FD"/>
    <rect x="245" y="170" width="30" height="28" fill="#BAE6FD"/>
    <g transform="skewX(-18)"><rect x="115" y="108" width="22" height="14" rx="1.5" fill="#1E3A5F" stroke="#0F172A" stroke-width="0.8"/><rect x="140" y="108" width="22" height="14" rx="1.5" fill="#1E3A5F" stroke="#0F172A" stroke-width="0.8"/><rect x="165" y="108" width="22" height="14" rx="1.5" fill="#1E3A5F" stroke="#0F172A" stroke-width="0.8"/><rect x="190" y="108" width="22" height="14" rx="1.5" fill="#1E3A5F" stroke="#0F172A" stroke-width="0.8"/><rect x="215" y="108" width="22" height="14" rx="1.5" fill="#1E3A5F" stroke="#0F172A" stroke-width="0.8"/><rect x="115" y="125" width="22" height="14" rx="1.5" fill="#1E3A5F" stroke="#0F172A" stroke-width="0.8"/><rect x="140" y="125" width="22" height="14" rx="1.5" fill="#1E3A5F" stroke="#0F172A" stroke-width="0.8"/><rect x="165" y="125" width="22" height="14" rx="1.5" fill="#1E3A5F" stroke="#0F172A" stroke-width="0.8"/><rect x="190" y="125" width="22" height="14" rx="1.5" fill="#1E3A5F" stroke="#0F172A" stroke-width="0.8"/><rect x="215" y="125" width="22" height="14" rx="1.5" fill="#1E3A5F" stroke="#0F172A" stroke-width="0.8"/></g>
</svg>
