<svg xmlns="http://www.w3.org/2000/svg" viewBox="0 0 400 300" width="400" height="300" role="img">
  <defs>
    <linearGradient id="sky" x1="0" y1="0" x2="0" y2="1">
      <stop offset="0" stop-color="#E0F2FE"/>
      <stop offset="1" stop-color="#7DD3FC"/>
    </linearGradient>
  </defs>
  <rect width="400" height="300" fill="url(#sky)"/>
  <line x1="360.0" y1="60.0" x2="368.0" y2="60.0" stroke="#FBBF24" stroke-width="2.5" stroke-linecap="round"/><line x1="351.2" y1="81.2" x2="356.9" y2="86.9" stroke="#FBBF24" stroke-width="2.5" stroke-linecap="round"/><line x1="330.0" y1="90.0" x2="330.0" y2="98.0" stroke="#FBBF24" stroke-width="2.5" stroke-linecap="round"/><line x1="308.8" y1="81.2" x2="303.1" y2="86.9" stroke="#FBBF24" stroke-width="2.5" stroke-linecap="round"/><line x1="300.0" y1="60.0" x2="292.0" y2="60.0" stroke="#FBBF24" stroke-width="2.5" stroke-linecap="round"/><line x1="308.8" y1="38.8" x2="303.1" y2="33.1" stroke="#FBBF24" stroke-width="2.5" stroke-linecap="round"/><line x1="330.0" y1="30.0" x2="330.0" y2="22.0" stroke="#FBBF24" stroke-width="2.5" stroke-linecap="round"/><line x1="351.2" y1="38.8" x2="356.9" y2="33.1" stroke="#FBBF24" stroke-width="2.5" stroke-linecap="round"/><circle cx="330" cy="60" r="26" fill="#FBBF24"/>
  <rect y="240" width="400" height="60" fill="#38BDF8"/>
  
    <polygon points="70,160 160,110 250,160" fill="#7F1D1D"/>
    <rect x="95" y="160" width="160" height="80" fill="#F8FAFC"/>
    <rect x="255" y="120" width="90" height="120" fill="#E2E8F0"/>
    <rect x="160" y="200" width="34" height="40" fill="#7F1D1D"/>
    <g transform="skewX(-16)"><rect x="100" y="120" width="20" height="13" rx="1.5" fill="#1E3A5F" stroke="#0F172A" stroke-width="0.8"/><rect x="123" y="120" width="20" height="13" rx="1.5" fill="#1E3A5F" stroke="#0F172A" stroke-width="0.8"/><rect x="146" y="120" width="20" height="13" rx="1.5" fill="#1E3A5F" stroke="#0F172A" stroke-width="0.8"/><rect x="169" y="120" width="20" height="13" rx="1.5" fill="#1E3A5F" stroke="#0F172A" stroke-width="0.8"/><rect x="100" y="136" width="20" height="13" rx="1.5" fill="#1E3A5F" stroke="#0F172A" stroke-width="0.8"/><rect x="123" y="136" width="20" height="13" rx="1.5" fill="#1E3A5F" stroke="#0F172A" stroke-width="0.8"/><rect x="146" y="136" width="20" height="13" rx="1.5" fill="#1E3A5F" stroke="#0F172A" stroke-width="0.8"/><rect x="169" y="136" width="20" height="13" rx="1.5" fill="#1E3A5F" stroke="#0F172A" stroke-width="0.8"/></g>
    <g transform="skewX(0)"><rect x="270" y="135" width="18" height="13" rx="1.5" fill="#1E3A5F" stroke="#0F172A" stroke-width="0.8"/><rect x="291" y="135" width="18" height="13" rx="1.5" fill="#1E3A5F" stroke="#0F172A" stroke-width="0.8"/><rect x="312" y="135" width="18" height="13" rx="1.5" fill="#1E3A5F" stroke="#0F172A" stroke-width="0.8"/><rect x="270" y="151" width="18" height="13" rx="1.5" fill="#1E3A5F" stroke="#0F172A" stroke-width="0.8"/><rect x="291" y="151" width="18" height="13" rx="1.5" fill="#1E3A5F" stroke="#0F172A" stroke-width="0.8"/><rect x="312" y="151" width="18" height="13" rx="1.5" fill="#1E3A5F" stroke="#0F172A" stroke-width="0.8"/><rect x="270" y="167" width="18" height="13" rx="1.5" fill="#1E3A5F" stroke="#0F172A" stroke-width="0.8"/><rect x="291" y="167" width="18" height="13" rx="1.5" fill="#1E3A5F" stroke="#0F172A" stroke-width="0.8"/><rect x="312" y="167" width="18" height="13" rx="1.5" fill="#1E3A5F" stroke="#0F172A" stroke-width="0.8"/></g>
</svg>
