<svg xmlns="http://www.w3.org/2000/svg" viewBox="0 0 400 300" width="400" height="300" role="img">
  <defs>
    <linearGradient id="sky" x1="0" y1="0" x2="0" y2="1">
      <stop offset="0" stop-color="#DCFCE7"/>
      <stop offset="1" stop-color="#86EFAC"/>
    </linearGradient>
  </defs>
  <rect width="400" height="300" fill="url(#sky)"/>
  <line x1="360.0" y1="60.0" x2="368.0" y2="60.0" stroke="#F59E0B" stroke-width="2.5" stroke-linecap="round"/><line x1="351.2" y1="81.2" x2="356.9" y2="86.9" stroke="#F59E0B" stroke-width="2.5" stroke-linecap="round"/><line x1="330.0" y1="90.0" x2="330.0" y2="98.0" stroke="#F59E0B" stroke-width="2.5" stroke-linecap="round"/><line x1="308.8" y1="81.2" x2="303.1" y2="86.9" stroke="#F59E0B" stroke-width="2.5" stroke-linecap="round"/><line x1="300.0" y1="60.0" x2="292.0" y2="60.0" stroke="#F59E0B" stroke-width="2.5" stroke-linecap="round"/><line x1="308.8" y1="38.8" x2="303.1" y2="33.1" stroke="#F59E0B" stroke-width="2.5" stroke-linecap="round"/><line x1="330.0" y1="30.0" x2="330.0" y2="22.0" stroke="#F59E0B" stroke-width="2.5" stroke-linecap="round"/><line x1="351.2" y1="38.8" x2="356.9" y2="33.1" stroke="#F59E0B" stroke-width="2.5" stroke-linecap="round"/><circle cx="330" cy="60" r="26" fill="#F59E0B"/>
  <rect y="240" width="400" height="60" fill="#4ADE80"/>
  
    <polygon points="90,160 110,120 290,120 310,160" fill="#92400E"/>
    <polygon points="110,120 140,100 260,100 290,120" fill="#B45309"/>
    <rect x="110" y="160" width="180" height="80" fill="#FEF3C7"/>
    <rect x="175" y="195" width="50" height="45" fill="#92400E"/>
    <g transform="skewX(-12)"><rect x="120" y="128" width="26" height="12" rx="1.5" fill="#1E3A5F" stroke="#0F172A" stroke-width="0.8"/><rect x="149" y="128" width="26" height="12" rx="1.5" fill="#1E3A5F" stroke="#0F172A" stroke-width="0.8"/><rect x="178" y="128" width="26" height="12" rx="1.5" fill="#1E3A5F" stroke="#0F172A" stroke-width="0.8"/><rect x="207" y="128" width="26" height="12" rx="1.5" fill="#1E3A5F" stroke="#0F172A" stroke-width="0.8"/><rect x="236" y="128" width="26" height="12" rx="1.5" fill="#1E3A5F" stroke="#0F172A" stroke-width="0.8"/><rect x="120" y="143" width="26" height="12" rx="1.5" fill="#1E3A5F" stroke="#0F172A" stroke-width="0.8"/><rect x="149" y="143" width="26" height="12" rx="1.5" fill="#1E3A5F" stroke="#0F172A" stroke-width="0.8"/><rect x="178" y="143" width="26" height="12" rx="1.5" fill="#1E3A5F" stroke="#0F172A" stroke-width="0.8"/><rect x="207" y="143" width="26" height="12" rx="1.5" fill="#1E3A5F" stroke="#0F172A" stroke-width="0.8"/><rect x="236" y="143" width="26" height="12" rx="1.5" fill="#1E3A5F" stroke="#0F172A" stroke-width="0.8"/></g>
</svg>
